<svg width="14" height="14" viewBox="0 0 14 14" fill="none" xmlns="http://www.w3.org/2000/svg">
<g opacity="0.498465">
<path fill-rule="evenodd" clip-rule="evenodd" d="M5.83535 1.17673C6.47857 0.533515 7.52143 0.533515 8.16465 1.17673L12.8232 5.83532C12.8634 5.87552 12.9011 5.91728 12.9363 5.96041C13.4639 6.60733 13.4262 7.56159 12.8232 8.16461L8.16465 12.8232C7.52143 13.4664 6.47857 13.4664 5.83535 12.8232C5.19214 12.18 5.19214 11.1371 5.83535 10.4939L9.32929 6.99996L5.83535 3.50602C5.19214 2.86281 5.19214 1.81995 5.83535 1.17673Z" fill="#3A4562"/>
<mask id="mask0_1_3001" style="mask-type:alpha" maskUnits="userSpaceOnUse" x="5" y="0" width="9" height="14">
<path fill-rule="evenodd" clip-rule="evenodd" d="M5.83535 1.17673C6.47857 0.533515 7.52143 0.533515 8.16465 1.17673L12.8232 5.83532C12.8634 5.87552 12.9011 5.91728 12.9363 5.96041C13.4639 6.60733 13.4262 7.56159 12.8232 8.16461L8.16465 12.8232C7.52143 13.4664 6.47857 13.4664 5.83535 12.8232C5.19214 12.18 5.19214 11.1371 5.83535 10.4939L9.32929 6.99996L5.83535 3.50602C5.19214 2.86281 5.19214 1.81995 5.83535 1.17673Z" fill="white"/>
</mask>
<g mask="url(#mask0_1_3001)">
<rect width="11.1176" height="14" transform="matrix(-1 0 0 1 14 0)" fill="white"/>
</g>
</g>
</svg>
